<?xml version="1.0" encoding="UTF-8" standalone="no"?><svg xmlns="http://www.w3.org/2000/svg" xmlns:xlink="http://www.w3.org/1999/xlink" contentScriptType="application/ecmascript" contentStyleType="text/css" height="543px" preserveAspectRatio="none" style="width:620px;height:543px;" version="1.1" viewBox="0 0 620 543" width="620px" zoomAndPan="magnify"><defs><filter height="300%" id="f14w1wslxtdeft" width="300%" x="-1" y="-1"><feGaussianBlur result="blurOut" stdDeviation="2.0"/><feColorMatrix in="blurOut" result="blurOut2" type="matrix" values="0 0 0 0 0 0 0 0 0 0 0 0 0 0 0 0 0 0 .4 0"/><feOffset dx="4.0" dy="4.0" in="blurOut2" result="blurOut3"/><feBlend in="SourceGraphic" in2="blurOut3" mode="normal"/></filter></defs><g><!--cluster flutter_uml::src::widgets.dart--><polygon fill="#FFFFFF" filter="url(#f14w1wslxtdeft)" points="14,16,253,16,260,38.2969,263,38.2969,263,99,14,99,14,16" style="stroke: #000000; stroke-width: 1.5;"/><line style="stroke: #000000; stroke-width: 1.5;" x1="14" x2="260" y1="38.2969" y2="38.2969"/><text fill="#000000" font-family="sans-serif" font-size="14" font-weight="bold" lengthAdjust="spacingAndGlyphs" textLength="233" x="18" y="30.9951">flutter_uml::src::widgets.dart</text><!--cluster flutter_uml::src::routes.dart--><polygon fill="#FFFFFF" filter="url(#f14w1wslxtdeft)" points="271,16,499,16,506,38.2969,598,38.2969,598,531,271,531,271,16" style="stroke: #000000; stroke-width: 1.5;"/><line style="stroke: #000000; stroke-width: 1.5;" x1="271" x2="506" y1="38.2969" y2="38.2969"/><text fill="#000000" font-family="sans-serif" font-size="14" font-weight="bold" lengthAdjust="spacingAndGlyphs" textLength="222" x="275" y="30.9951">flutter_uml::src::routes.dart</text><!--class flutter_uml::src::widgets.dart::Widget--><rect fill="#FEFECE" filter="url(#f14w1wslxtdeft)" height="48" id="flutter_uml::src::widgets.dart::Widget" style="stroke: #A80036; stroke-width: 1.5;" width="75" x="100.5" y="43"/><ellipse cx="115.5" cy="59" fill="#A9DCDF" rx="11" ry="11" style="stroke: #A80036; stroke-width: 1.0;"/><path d="M115.6094,54.3438 L114.4531,59.4219 L116.7813,59.4219 L115.6094,54.3438 Z M114.125,52.1094 L117.1094,52.1094 L120.4688,64.5 L118.0156,64.5 L117.25,61.4375 L113.9688,61.4375 L113.2188,64.5 L110.7813,64.5 L114.125,52.1094 Z "/><text fill="#000000" font-family="sans-serif" font-size="12" font-style="italic" lengthAdjust="spacingAndGlyphs" textLength="43" x="129.5" y="63.1543">Widget</text><line style="stroke: #A80036; stroke-width: 1.5;" x1="101.5" x2="174.5" y1="75" y2="75"/><line style="stroke: #A80036; stroke-width: 1.5;" x1="101.5" x2="174.5" y1="83" y2="83"/><!--class flutter_uml::src::routes.dart::Route--><rect fill="#FEFECE" filter="url(#f14w1wslxtdeft)" height="48" id="flutter_uml::src::routes.dart::Route" style="stroke: #A80036; stroke-width: 1.5;" width="69" x="489.5" y="43"/><ellipse cx="504.5" cy="59" fill="#A9DCDF" rx="11" ry="11" style="stroke: #A80036; stroke-width: 1.0;"/><path d="M504.6094,54.3438 L503.4531,59.4219 L505.7813,59.4219 L504.6094,54.3438 Z M503.125,52.1094 L506.1094,52.1094 L509.4688,64.5 L507.0156,64.5 L506.25,61.4375 L502.9688,61.4375 L502.2188,64.5 L499.7813,64.5 L503.125,52.1094 Z "/><text fill="#000000" font-family="sans-serif" font-size="12" font-style="italic" lengthAdjust="spacingAndGlyphs" textLength="37" x="518.5" y="63.1543">Route</text><line style="stroke: #A80036; stroke-width: 1.5;" x1="490.5" x2="557.5" y1="75" y2="75"/><line style="stroke: #A80036; stroke-width: 1.5;" x1="490.5" x2="557.5" y1="83" y2="83"/><!--class flutter_uml::src::routes.dart::OverlayRoute--><rect fill="#FEFECE" filter="url(#f14w1wslxtdeft)" height="48" id="flutter_uml::src::routes.dart::OverlayRoute" style="stroke: #A80036; stroke-width: 1.5;" width="114" x="467" y="151"/><ellipse cx="482" cy="167" fill="#A9DCDF" rx="11" ry="11" style="stroke: #A80036; stroke-width: 1.0;"/><path d="M482.1094,162.3438 L480.9531,167.4219 L483.2813,167.4219 L482.1094,162.3438 Z M480.625,160.1094 L483.6094,160.1094 L486.9688,172.5 L484.5156,172.5 L483.75,169.4375 L480.4688,169.4375 L479.7188,172.5 L477.2813,172.5 L480.625,160.1094 Z "/><text fill="#000000" font-family="sans-serif" font-size="12" font-style="italic" lengthAdjust="spacingAndGlyphs" textLength="82" x="496" y="171.1543">OverlayRoute</text><line style="stroke: #A80036; stroke-width: 1.5;" x1="468" x2="580" y1="183" y2="183"/><line style="stroke: #A80036; stroke-width: 1.5;" x1="468" x2="580" y1="191" y2="191"/><!--class flutter_uml::src::routes.dart::TransitionRoute--><rect fill="#FEFECE" filter="url(#f14w1wslxtdeft)" height="48" id="flutter_uml::src::routes.dart::TransitionRoute" style="stroke: #A80036; stroke-width: 1.5;" width="131" x="458.5" y="259"/><ellipse cx="473.5" cy="275" fill="#A9DCDF" rx="11" ry="11" style="stroke: #A80036; stroke-width: 1.0;"/><path d="M473.6094,270.3438 L472.4531,275.4219 L474.7813,275.4219 L473.6094,270.3438 Z M472.125,268.1094 L475.1094,268.1094 L478.4688,280.5 L476.0156,280.5 L475.25,277.4375 L471.9688,277.4375 L471.2188,280.5 L468.7813,280.5 L472.125,268.1094 Z "/><text fill="#000000" font-family="sans-serif" font-size="12" font-style="italic" lengthAdjust="spacingAndGlyphs" textLength="99" x="487.5" y="279.1543">TransitionRoute</text><line style="stroke: #A80036; stroke-width: 1.5;" x1="459.5" x2="588.5" y1="291" y2="291"/><line style="stroke: #A80036; stroke-width: 1.5;" x1="459.5" x2="588.5" y1="299" y2="299"/><!--class flutter_uml::src::routes.dart::ModalRoute--><rect fill="#FEFECE" filter="url(#f14w1wslxtdeft)" height="48" id="flutter_uml::src::routes.dart::ModalRoute" style="stroke: #A80036; stroke-width: 1.5;" width="106" x="384" y="367"/><ellipse cx="399" cy="383" fill="#A9DCDF" rx="11" ry="11" style="stroke: #A80036; stroke-width: 1.0;"/><path d="M399.1094,378.3438 L397.9531,383.4219 L400.2813,383.4219 L399.1094,378.3438 Z M397.625,376.1094 L400.6094,376.1094 L403.9688,388.5 L401.5156,388.5 L400.75,385.4375 L397.4688,385.4375 L396.7188,388.5 L394.2813,388.5 L397.625,376.1094 Z "/><text fill="#000000" font-family="sans-serif" font-size="12" font-style="italic" lengthAdjust="spacingAndGlyphs" textLength="74" x="413" y="387.1543">ModalRoute</text><line style="stroke: #A80036; stroke-width: 1.5;" x1="385" x2="489" y1="399" y2="399"/><line style="stroke: #A80036; stroke-width: 1.5;" x1="385" x2="489" y1="407" y2="407"/><!--class flutter_uml::src::routes.dart::LocalHistoryRoute--><rect fill="#FEFECE" filter="url(#f14w1wslxtdeft)" height="48" id="flutter_uml::src::routes.dart::LocalHistoryRoute" style="stroke: #A80036; stroke-width: 1.5;" width="144" x="279" y="259"/><ellipse cx="294" cy="275" fill="#A9DCDF" rx="11" ry="11" style="stroke: #A80036; stroke-width: 1.0;"/><path d="M294.1094,270.3438 L292.9531,275.4219 L295.2813,275.4219 L294.1094,270.3438 Z M292.625,268.1094 L295.6094,268.1094 L298.9688,280.5 L296.5156,280.5 L295.75,277.4375 L292.4688,277.4375 L291.7188,280.5 L289.2813,280.5 L292.625,268.1094 Z "/><text fill="#000000" font-family="sans-serif" font-size="12" font-style="italic" lengthAdjust="spacingAndGlyphs" textLength="112" x="308" y="279.1543">LocalHistoryRoute</text><line style="stroke: #A80036; stroke-width: 1.5;" x1="280" x2="422" y1="291" y2="291"/><line style="stroke: #A80036; stroke-width: 1.5;" x1="280" x2="422" y1="299" y2="299"/><!--class flutter_uml::src::routes.dart::PageRoute--><rect fill="#FEFECE" filter="url(#f14w1wslxtdeft)" height="48" id="flutter_uml::src::routes.dart::PageRoute" style="stroke: #A80036; stroke-width: 1.5;" width="101" x="386.5" y="475"/><ellipse cx="401.5" cy="491" fill="#A9DCDF" rx="11" ry="11" style="stroke: #A80036; stroke-width: 1.0;"/><path d="M401.6094,486.3438 L400.4531,491.4219 L402.7813,491.4219 L401.6094,486.3438 Z M400.125,484.1094 L403.1094,484.1094 L406.4688,496.5 L404.0156,496.5 L403.25,493.4375 L399.9688,493.4375 L399.2188,496.5 L396.7813,496.5 L400.125,484.1094 Z "/><text fill="#000000" font-family="sans-serif" font-size="12" font-style="italic" lengthAdjust="spacingAndGlyphs" textLength="69" x="415.5" y="495.1543">PageRoute</text><line style="stroke: #A80036; stroke-width: 1.5;" x1="387.5" x2="486.5" y1="507" y2="507"/><line style="stroke: #A80036; stroke-width: 1.5;" x1="387.5" x2="486.5" y1="515" y2="515"/><!--link flutter_uml::src::routes.dart::Route to flutter_uml::src::routes.dart::OverlayRoute--><path d="M524,111.2911 C524,124.8171 524,139.1835 524,150.8436 " fill="none" id="flutter_uml::src::routes.dart::Route-flutter_uml::src::routes.dart::OverlayRoute" style="stroke: #A80036; stroke-width: 1.0;"/><polygon fill="none" points="517.0001,111.2373,524,91.2373,531.0001,111.2373,517.0001,111.2373" style="stroke: #A80036; stroke-width: 1.0;"/><!--link flutter_uml::src::routes.dart::OverlayRoute to flutter_uml::src::routes.dart::TransitionRoute--><path d="M524,219.2911 C524,232.8171 524,247.1835 524,258.8436 " fill="none" id="flutter_uml::src::routes.dart::OverlayRoute-flutter_uml::src::routes.dart::TransitionRoute" style="stroke: #A80036; stroke-width: 1.0;"/><polygon fill="none" points="517.0001,219.2373,524,199.2373,531.0001,219.2373,517.0001,219.2373" style="stroke: #A80036; stroke-width: 1.0;"/><!--link flutter_uml::src::routes.dart::TransitionRoute to flutter_uml::src::routes.dart::ModalRoute--><path d="M491.7965,322.9767 C479.93,337.7075 466.8585,353.9342 456.4593,366.8436 " fill="none" id="flutter_uml::src::routes.dart::TransitionRoute-flutter_uml::src::routes.dart::ModalRoute" style="stroke: #A80036; stroke-width: 1.0;"/><polygon fill="none" points="486.4776,318.4211,504.4755,307.2373,497.3802,327.2037,486.4776,318.4211" style="stroke: #A80036; stroke-width: 1.0;"/><!--link flutter_uml::src::routes.dart::LocalHistoryRoute to flutter_uml::src::routes.dart::ModalRoute--><path d="M382.8333,322.9767 C394.5634,337.7075 407.4847,353.9342 417.7643,366.8436 " fill="none" id="flutter_uml::src::routes.dart::LocalHistoryRoute-flutter_uml::src::routes.dart::ModalRoute" style="stroke: #A80036; stroke-width: 1.0;"/><polygon fill="none" points="377.2827,327.2434,370.3001,307.2373,388.2346,318.5224,377.2827,327.2434" style="stroke: #A80036; stroke-width: 1.0;"/><!--link flutter_uml::src::routes.dart::ModalRoute to flutter_uml::src::routes.dart::PageRoute--><path d="M437,435.2911 C437,448.8171 437,463.1835 437,474.8436 " fill="none" id="flutter_uml::src::routes.dart::ModalRoute-flutter_uml::src::routes.dart::PageRoute" style="stroke: #A80036; stroke-width: 1.0;"/><polygon fill="none" points="430.0001,435.2373,437,415.2373,444.0001,435.2373,430.0001,435.2373" style="stroke: #A80036; stroke-width: 1.0;"/><!--
@startuml
set namespaceSeparator ::

abstract class "flutter_uml::src::widgets.dart::Widget" {
}

abstract class "flutter_uml::src::routes.dart::Route" {
}

abstract class "flutter_uml::src::routes.dart::OverlayRoute" {
}

"flutter_uml::src::routes.dart::Route" <|- - "flutter_uml::src::routes.dart::OverlayRoute"

abstract class "flutter_uml::src::routes.dart::TransitionRoute" {
}

"flutter_uml::src::routes.dart::OverlayRoute" <|- - "flutter_uml::src::routes.dart::TransitionRoute"

abstract class "flutter_uml::src::routes.dart::ModalRoute" {
}

"flutter_uml::src::routes.dart::TransitionRoute" <|- - "flutter_uml::src::routes.dart::ModalRoute"
"flutter_uml::src::routes.dart::LocalHistoryRoute" <|- - "flutter_uml::src::routes.dart::ModalRoute"

abstract class "flutter_uml::src::routes.dart::PageRoute" {
}

"flutter_uml::src::routes.dart::ModalRoute" <|- - "flutter_uml::src::routes.dart::PageRoute"

abstract class "flutter_uml::src::routes.dart::LocalHistoryRoute" {
}


@enduml

PlantUML version 1.2019.03(Sun Mar 10 11:04:44 UTC 2019)
(GPL source distribution)
Java Runtime: OpenJDK Runtime Environment
JVM: OpenJDK 64-Bit Server VM
Java Version: 1.8.0_162-heroku-b12
Operating System: Linux
OS Version: 4.4.0-1098-aws
Default Encoding: UTF-8
Language: en
Country: US
--></g></svg>