<?xml version="1.0" encoding="UTF-8" standalone="no"?><svg xmlns="http://www.w3.org/2000/svg" xmlns:xlink="http://www.w3.org/1999/xlink" contentScriptType="application/ecmascript" contentStyleType="text/css" height="327px" preserveAspectRatio="none" style="width:781px;height:327px;" version="1.1" viewBox="0 0 781 327" width="781px" zoomAndPan="magnify"><defs><filter height="300%" id="f1btzcpebk9fnf" width="300%" x="-1" y="-1"><feGaussianBlur result="blurOut" stdDeviation="2.0"/><feColorMatrix in="blurOut" result="blurOut2" type="matrix" values="0 0 0 0 0 0 0 0 0 0 0 0 0 0 0 0 0 0 .4 0"/><feOffset dx="4.0" dy="4.0" in="blurOut2" result="blurOut3"/><feBlend in="SourceGraphic" in2="blurOut3" mode="normal"/></filter></defs><g><!--cluster flutter_uml::src::widgets.dart--><polygon fill="#FFFFFF" filter="url(#f1btzcpebk9fnf)" points="14,16,253,16,260,38.2969,513,38.2969,513,315,14,315,14,16" style="stroke: #000000; stroke-width: 1.5;"/><line style="stroke: #000000; stroke-width: 1.5;" x1="14" x2="260" y1="38.2969" y2="38.2969"/><text fill="#000000" font-family="sans-serif" font-size="14" font-weight="bold" lengthAdjust="spacingAndGlyphs" textLength="233" x="18" y="30.9951">flutter_uml::src::widgets.dart</text><!--cluster flutter_uml::src::routes.dart--><polygon fill="#FFFFFF" filter="url(#f1btzcpebk9fnf)" points="521,16,749,16,756,38.2969,759,38.2969,759,99,521,99,521,16" style="stroke: #000000; stroke-width: 1.5;"/><line style="stroke: #000000; stroke-width: 1.5;" x1="521" x2="756" y1="38.2969" y2="38.2969"/><text fill="#000000" font-family="sans-serif" font-size="14" font-weight="bold" lengthAdjust="spacingAndGlyphs" textLength="222" x="525" y="30.9951">flutter_uml::src::routes.dart</text><!--class flutter_uml::src::widgets.dart::Widget--><rect fill="#FEFECE" filter="url(#f1btzcpebk9fnf)" height="48" id="flutter_uml::src::widgets.dart::Widget" style="stroke: #A80036; stroke-width: 1.5;" width="75" x="227.5" y="43"/><ellipse cx="242.5" cy="59" fill="#A9DCDF" rx="11" ry="11" style="stroke: #A80036; stroke-width: 1.0;"/><path d="M242.6094,54.3438 L241.4531,59.4219 L243.7813,59.4219 L242.6094,54.3438 Z M241.125,52.1094 L244.1094,52.1094 L247.4688,64.5 L245.0156,64.5 L244.25,61.4375 L240.9688,61.4375 L240.2188,64.5 L237.7813,64.5 L241.125,52.1094 Z "/><text fill="#000000" font-family="sans-serif" font-size="12" font-style="italic" lengthAdjust="spacingAndGlyphs" textLength="43" x="256.5" y="63.1543">Widget</text><line style="stroke: #A80036; stroke-width: 1.5;" x1="228.5" x2="301.5" y1="75" y2="75"/><line style="stroke: #A80036; stroke-width: 1.5;" x1="228.5" x2="301.5" y1="83" y2="83"/><!--class flutter_uml::src::widgets.dart::RenderObjectWidget--><rect fill="#FEFECE" filter="url(#f1btzcpebk9fnf)" height="48" id="flutter_uml::src::widgets.dart::RenderObjectWidget" style="stroke: #A80036; stroke-width: 1.5;" width="160" x="185" y="151"/><ellipse cx="200" cy="167" fill="#A9DCDF" rx="11" ry="11" style="stroke: #A80036; stroke-width: 1.0;"/><path d="M200.1094,162.3438 L198.9531,167.4219 L201.2813,167.4219 L200.1094,162.3438 Z M198.625,160.1094 L201.6094,160.1094 L204.9688,172.5 L202.5156,172.5 L201.75,169.4375 L198.4688,169.4375 L197.7188,172.5 L195.2813,172.5 L198.625,160.1094 Z "/><text fill="#000000" font-family="sans-serif" font-size="12" font-style="italic" lengthAdjust="spacingAndGlyphs" textLength="128" x="214" y="171.1543">RenderObjectWidget</text><line style="stroke: #A80036; stroke-width: 1.5;" x1="186" x2="344" y1="183" y2="183"/><line style="stroke: #A80036; stroke-width: 1.5;" x1="186" x2="344" y1="191" y2="191"/><!--class flutter_uml::src::widgets.dart::SingleChildRenderObjectWidget--><rect fill="#FEFECE" filter="url(#f1btzcpebk9fnf)" height="48" id="flutter_uml::src::widgets.dart::SingleChildRenderObjectWidget" style="stroke: #A80036; stroke-width: 1.5;" width="228" x="22" y="259"/><ellipse cx="37" cy="275" fill="#A9DCDF" rx="11" ry="11" style="stroke: #A80036; stroke-width: 1.0;"/><path d="M37.1094,270.3438 L35.9531,275.4219 L38.2813,275.4219 L37.1094,270.3438 Z M35.625,268.1094 L38.6094,268.1094 L41.9688,280.5 L39.5156,280.5 L38.75,277.4375 L35.4688,277.4375 L34.7188,280.5 L32.2813,280.5 L35.625,268.1094 Z "/><text fill="#000000" font-family="sans-serif" font-size="12" font-style="italic" lengthAdjust="spacingAndGlyphs" textLength="196" x="51" y="279.1543">SingleChildRenderObjectWidget</text><line style="stroke: #A80036; stroke-width: 1.5;" x1="23" x2="249" y1="291" y2="291"/><line style="stroke: #A80036; stroke-width: 1.5;" x1="23" x2="249" y1="299" y2="299"/><!--class flutter_uml::src::widgets.dart::MultiChildRenderObjectWidget--><rect fill="#FEFECE" filter="url(#f1btzcpebk9fnf)" height="48" id="flutter_uml::src::widgets.dart::MultiChildRenderObjectWidget" style="stroke: #A80036; stroke-width: 1.5;" width="219" x="285.5" y="259"/><ellipse cx="300.5" cy="275" fill="#A9DCDF" rx="11" ry="11" style="stroke: #A80036; stroke-width: 1.0;"/><path d="M300.6094,270.3438 L299.4531,275.4219 L301.7813,275.4219 L300.6094,270.3438 Z M299.125,268.1094 L302.1094,268.1094 L305.4688,280.5 L303.0156,280.5 L302.25,277.4375 L298.9688,277.4375 L298.2188,280.5 L295.7813,280.5 L299.125,268.1094 Z "/><text fill="#000000" font-family="sans-serif" font-size="12" font-style="italic" lengthAdjust="spacingAndGlyphs" textLength="187" x="314.5" y="279.1543">MultiChildRenderObjectWidget</text><line style="stroke: #A80036; stroke-width: 1.5;" x1="286.5" x2="503.5" y1="291" y2="291"/><line style="stroke: #A80036; stroke-width: 1.5;" x1="286.5" x2="503.5" y1="299" y2="299"/><!--class flutter_uml::src::routes.dart::Route--><rect fill="#FEFECE" filter="url(#f1btzcpebk9fnf)" height="48" id="flutter_uml::src::routes.dart::Route" style="stroke: #A80036; stroke-width: 1.5;" width="69" x="605.5" y="43"/><ellipse cx="620.5" cy="59" fill="#A9DCDF" rx="11" ry="11" style="stroke: #A80036; stroke-width: 1.0;"/><path d="M620.6094,54.3438 L619.4531,59.4219 L621.7813,59.4219 L620.6094,54.3438 Z M619.125,52.1094 L622.1094,52.1094 L625.4688,64.5 L623.0156,64.5 L622.25,61.4375 L618.9688,61.4375 L618.2188,64.5 L615.7813,64.5 L619.125,52.1094 Z "/><text fill="#000000" font-family="sans-serif" font-size="12" font-style="italic" lengthAdjust="spacingAndGlyphs" textLength="37" x="634.5" y="63.1543">Route</text><line style="stroke: #A80036; stroke-width: 1.5;" x1="606.5" x2="673.5" y1="75" y2="75"/><line style="stroke: #A80036; stroke-width: 1.5;" x1="606.5" x2="673.5" y1="83" y2="83"/><!--link flutter_uml::src::widgets.dart::Widget to flutter_uml::src::widgets.dart::RenderObjectWidget--><path d="M265,111.2911 C265,124.8171 265,139.1835 265,150.8436 " fill="none" id="flutter_uml::src::widgets.dart::Widget-flutter_uml::src::widgets.dart::RenderObjectWidget" style="stroke: #A80036; stroke-width: 1.0;"/><polygon fill="none" points="258.0001,111.2373,265,91.2373,272.0001,111.2373,258.0001,111.2373" style="stroke: #A80036; stroke-width: 1.0;"/><!--link flutter_uml::src::widgets.dart::RenderObjectWidget to flutter_uml::src::widgets.dart::SingleChildRenderObjectWidget--><path d="M220.6317,212.1456 C202.1723,227.6 181.2678,245.1014 164.8535,258.8436 " fill="none" id="flutter_uml::src::widgets.dart::RenderObjectWidget-flutter_uml::src::widgets.dart::SingleChildRenderObjectWidget" style="stroke: #A80036; stroke-width: 1.0;"/><polygon fill="none" points="216.2211,206.7088,236.0499,199.2373,225.2083,217.4434,216.2211,206.7088" style="stroke: #A80036; stroke-width: 1.0;"/><!--link flutter_uml::src::widgets.dart::RenderObjectWidget to flutter_uml::src::widgets.dart::MultiChildRenderObjectWidget--><path d="M309.7123,212.1456 C328.3148,227.6 349.3813,245.1014 365.9228,258.8436 " fill="none" id="flutter_uml::src::widgets.dart::RenderObjectWidget-flutter_uml::src::widgets.dart::MultiChildRenderObjectWidget" style="stroke: #A80036; stroke-width: 1.0;"/><polygon fill="none" points="305.0852,217.4021,294.1745,199.2373,314.0315,206.6334,305.0852,217.4021" style="stroke: #A80036; stroke-width: 1.0;"/><!--
@startuml
set namespaceSeparator ::

abstract class "flutter_uml::src::widgets.dart::Widget" {
}

abstract class "flutter_uml::src::widgets.dart::RenderObjectWidget" {
}

"flutter_uml::src::widgets.dart::Widget" <|- - "flutter_uml::src::widgets.dart::RenderObjectWidget"

abstract class "flutter_uml::src::widgets.dart::SingleChildRenderObjectWidget" {
}

"flutter_uml::src::widgets.dart::RenderObjectWidget" <|- - "flutter_uml::src::widgets.dart::SingleChildRenderObjectWidget"

abstract class "flutter_uml::src::widgets.dart::MultiChildRenderObjectWidget" {
}

"flutter_uml::src::widgets.dart::RenderObjectWidget" <|- - "flutter_uml::src::widgets.dart::MultiChildRenderObjectWidget"

abstract class "flutter_uml::src::routes.dart::Route" {
}


@enduml

PlantUML version 1.2019.03(Sun Mar 10 11:04:44 UTC 2019)
(GPL source distribution)
Java Runtime: OpenJDK Runtime Environment
JVM: OpenJDK 64-Bit Server VM
Java Version: 1.8.0_162-heroku-b12
Operating System: Linux
OS Version: 4.4.0-1098-aws
Default Encoding: UTF-8
Language: en
Country: US
--></g></svg>