<?xml version="1.0" encoding="UTF-8" standalone="no"?><svg xmlns="http://www.w3.org/2000/svg" xmlns:xlink="http://www.w3.org/1999/xlink" contentScriptType="application/ecmascript" contentStyleType="text/css" height="111px" preserveAspectRatio="none" style="width:531px;height:111px;" version="1.1" viewBox="0 0 531 111" width="531px" zoomAndPan="magnify"><defs><filter height="300%" id="fdgsscox0n4oh" width="300%" x="-1" y="-1"><feGaussianBlur result="blurOut" stdDeviation="2.0"/><feColorMatrix in="blurOut" result="blurOut2" type="matrix" values="0 0 0 0 0 0 0 0 0 0 0 0 0 0 0 0 0 0 .4 0"/><feOffset dx="4.0" dy="4.0" in="blurOut2" result="blurOut3"/><feBlend in="SourceGraphic" in2="blurOut3" mode="normal"/></filter></defs><g><!--cluster flutter_uml::src::widgets.dart--><polygon fill="#FFFFFF" filter="url(#fdgsscox0n4oh)" points="14,16,253,16,260,38.2969,263,38.2969,263,99,14,99,14,16" style="stroke: #000000; stroke-width: 1.5;"/><line style="stroke: #000000; stroke-width: 1.5;" x1="14" x2="260" y1="38.2969" y2="38.2969"/><text fill="#000000" font-family="sans-serif" font-size="14" font-weight="bold" lengthAdjust="spacingAndGlyphs" textLength="233" x="18" y="30.9951">flutter_uml::src::widgets.dart</text><!--cluster flutter_uml::src::routes.dart--><polygon fill="#FFFFFF" filter="url(#fdgsscox0n4oh)" points="271,16,499,16,506,38.2969,509,38.2969,509,99,271,99,271,16" style="stroke: #000000; stroke-width: 1.5;"/><line style="stroke: #000000; stroke-width: 1.5;" x1="271" x2="506" y1="38.2969" y2="38.2969"/><text fill="#000000" font-family="sans-serif" font-size="14" font-weight="bold" lengthAdjust="spacingAndGlyphs" textLength="222" x="275" y="30.9951">flutter_uml::src::routes.dart</text><!--class flutter_uml::src::widgets.dart::Widget--><rect fill="#FEFECE" filter="url(#fdgsscox0n4oh)" height="48" id="flutter_uml::src::widgets.dart::Widget" style="stroke: #A80036; stroke-width: 1.5;" width="75" x="95.5" y="43"/><ellipse cx="110.5" cy="59" fill="#A9DCDF" rx="11" ry="11" style="stroke: #A80036; stroke-width: 1.0;"/><path d="M110.6094,54.3438 L109.4531,59.4219 L111.7813,59.4219 L110.6094,54.3438 Z M109.125,52.1094 L112.1094,52.1094 L115.4688,64.5 L113.0156,64.5 L112.25,61.4375 L108.9688,61.4375 L108.2188,64.5 L105.7813,64.5 L109.125,52.1094 Z "/><text fill="#000000" font-family="sans-serif" font-size="12" font-style="italic" lengthAdjust="spacingAndGlyphs" textLength="43" x="124.5" y="63.1543">Widget</text><line style="stroke: #A80036; stroke-width: 1.5;" x1="96.5" x2="169.5" y1="75" y2="75"/><line style="stroke: #A80036; stroke-width: 1.5;" x1="96.5" x2="169.5" y1="83" y2="83"/><!--class flutter_uml::src::routes.dart::Route--><rect fill="#FEFECE" filter="url(#fdgsscox0n4oh)" height="48" id="flutter_uml::src::routes.dart::Route" style="stroke: #A80036; stroke-width: 1.5;" width="69" x="355.5" y="43"/><ellipse cx="370.5" cy="59" fill="#A9DCDF" rx="11" ry="11" style="stroke: #A80036; stroke-width: 1.0;"/><path d="M370.6094,54.3438 L369.4531,59.4219 L371.7813,59.4219 L370.6094,54.3438 Z M369.125,52.1094 L372.1094,52.1094 L375.4688,64.5 L373.0156,64.5 L372.25,61.4375 L368.9688,61.4375 L368.2188,64.5 L365.7813,64.5 L369.125,52.1094 Z "/><text fill="#000000" font-family="sans-serif" font-size="12" font-style="italic" lengthAdjust="spacingAndGlyphs" textLength="37" x="384.5" y="63.1543">Route</text><line style="stroke: #A80036; stroke-width: 1.5;" x1="356.5" x2="423.5" y1="75" y2="75"/><line style="stroke: #A80036; stroke-width: 1.5;" x1="356.5" x2="423.5" y1="83" y2="83"/><!--
@startuml
set namespaceSeparator ::

abstract class "flutter_uml::src::widgets.dart::Widget" {
}

abstract class "flutter_uml::src::routes.dart::Route" {
}


@enduml

PlantUML version 1.2019.03(Sun Mar 10 11:04:44 UTC 2019)
(GPL source distribution)
Java Runtime: OpenJDK Runtime Environment
JVM: OpenJDK 64-Bit Server VM
Java Version: 1.8.0_162-heroku-b12
Operating System: Linux
OS Version: 4.4.0-1098-aws
Default Encoding: UTF-8
Language: en
Country: US
--></g></svg>